<svg width="84" height="59" viewBox="0 0 84 59" fill="none" xmlns="http://www.w3.org/2000/svg">
<path d="M61.8769 12.1268C65.0714 12.1268 67.661 9.59124 67.661 6.46342C67.661 3.3356 65.0714 0.800003 61.8769 0.800003C58.6825 0.800003 56.0929 3.3356 56.0929 6.46342C56.0929 9.59124 58.6825 12.1268 61.8769 12.1268Z" fill="white"/>
<path d="M67.1819 17.6194C65.4433 17.1899 63.619 16.9635 61.7411 16.9635C55.9118 16.9635 50.6209 19.1603 46.7097 22.7341V22.7315L45.1613 24.0824V24.085C44.7943 24.3636 44.4648 24.6317 44.1942 24.8867C40.1356 28.7052 27.1568 41.3573 23.1652 45.2434C22.6214 45.7725 22.0779 46.3021 21.535 46.8321C19.178 49.1332 15.3624 49.1516 12.998 46.8578C10.6195 44.5504 10.6185 40.7869 12.9958 38.4782L25.4927 26.2998C27.6485 24.199 27.6924 20.7481 25.5908 18.593V18.593C23.4995 16.4486 20.0695 16.3943 17.9113 18.4713L5.23271 30.6731C-1.42966 37.0169 -1.5344 47.4617 4.99947 53.9323C11.6231 60.4918 22.4675 60.4038 29.0054 53.7623C32.4267 50.2868 37.2115 45.4859 39.8999 42.7974C40.074 42.623 40.2428 42.4538 40.4169 42.2794H40.4196C42.5252 51.7202 51.2692 58.8001 61.7384 58.8001C73.7828 58.8001 83.5474 49.4348 83.5474 37.8805C83.5474 28.13 76.593 19.9386 67.1819 17.6194ZM61.4223 48.7112C55.4081 48.7112 50.5298 43.9791 50.5298 38.1434C50.5298 32.3076 55.4054 27.5755 61.4223 27.5755C67.4391 27.5755 72.3147 32.3076 72.3147 38.1434C72.3147 43.9791 67.4391 48.7112 61.4223 48.7112Z" fill="white"/>
</svg>
